<?xml version="1.0" encoding="UTF-8" standalone="no"?>
<!DOCTYPE svg PUBLIC "-//W3C//DTD SVG 1.1//EN" "http://www.w3.org/Graphics/SVG/1.1/DTD/svg11.dtd">
<svg width="100%" height="100%" viewBox="0 0 891 866" version="1.1" xmlns="http://www.w3.org/2000/svg" xmlns:xlink="http://www.w3.org/1999/xlink" xml:space="preserve" xmlns:serif="http://www.serif.com/" style="fill-rule:evenodd;clip-rule:evenodd;stroke-linejoin:round;stroke-miterlimit:2;">
    <g transform="matrix(1,0,0,1,-58.3664,-74.3403)">
        <g>
            <g transform="matrix(1.02963,0,0,0.987649,-19.6141,11.6946)">
                <path d="M798.855,628.019C876.918,628.019 940.201,693.992 940.201,775.373L940.201,792.278C940.201,873.66 876.918,939.632 798.855,939.632L217.083,939.632C139.02,939.632 75.737,873.66 75.737,792.278L75.737,775.373C75.737,693.992 139.02,628.019 217.083,628.019L798.855,628.019Z" style="fill:rgb(13,37,43);"/>
            </g>
            <g transform="matrix(1,0,0,1,-0.149799,-2.09982)">
                <path d="M395.518,534.837L391.353,535.246L340.172,535.197L323.049,532.93L307.338,526.456L293.789,516.201L283.15,502.594L226.351,406.314L226.297,476.865L225.147,488.318L221.802,499.216L216.393,509.251L209.048,518.114L200.099,525.352L190,530.642L179.062,533.856L167.596,534.869L136.053,534.517L125.374,533.333L115.235,530.104L105.922,524.956L97.723,518.011L91.057,509.586L86.223,500.106L83.335,489.864L82.507,479.152L82.584,475.701L81.306,134.838L82.427,123.295L85.743,112.449L91,102.653L97.952,94.14L106.392,87.101L116.134,81.743L126.944,78.315L138.475,77.075L168.205,76.88C194.843,76.705 219.51,90.89 232.756,114.002L291.348,216.233L291.363,129.07L292.398,118.804L295.38,109.154L300.083,100.442L306.284,92.877L313.805,86.623L322.483,81.859L332.112,78.809L342.371,77.701L387.914,77.372L436.215,76.725L453.6,76.736C461.676,76.558 466.746,76.44 466.746,76.44L526.786,76.783L649.853,76.863L709.565,77.829C735.103,77.496 771.735,77.199 795.926,77.784C871.386,79.609 936.897,153.237 929.248,227.041C927.136,247.427 919.829,268.07 905.552,287.23C993.488,370.377 931.136,530.573 803.797,534.525C803.398,534.537 803,534.543 802.601,534.542L743.199,534.38L742.105,534.755L683.936,534.219L681.883,534.214L681.813,534.2L646.192,533.872L645.76,534.003L633.079,535.254L433.732,535.123L429.125,534.662L395.518,534.837Z" style="fill:rgb(12,37,40);"/>
            </g>
            <g transform="matrix(1,0,0,1,1.91605,1.5512)">
                <path d="M418.601,526.198L418.861,521.389L421.205,512.412L425.287,504.081L431.009,496.661L438.105,490.541L446.2,486.008L455.034,483.176L464.349,482.157L546.647,481.511L564.312,484.918L579.287,494.888L589.245,509.871L592.299,525.77L625.883,526.094L640.321,528.348L653.263,534.482L663.961,544.002L671.673,556.414L675.507,570.515L675.189,584.833L670.863,598.485L662.678,610.591L541.742,743.104L534.463,749.577L526.097,754.363L516.928,757.334L507.241,758.366L497.551,757.372L488.371,754.437L479.986,749.684L472.681,743.239L348.486,608.223L340.48,596.461L336.247,583.179L335.936,569.241L339.687,555.517L347.231,543.454L357.686,534.233L370.319,528.337L384.392,526.247L418.601,526.198ZM464.632,518.203C461.813,518.225 459.125,519.394 457.187,521.441C455.249,523.489 454.228,526.237 454.361,529.053L455.918,562.19L384.444,562.293C379.353,562.301 374.748,565.316 372.705,569.979C370.663,574.643 371.569,580.073 375.016,583.819L499.211,718.836C501.258,721.062 504.146,722.326 507.171,722.32C510.195,722.314 513.078,721.039 515.117,718.805L636.053,586.292C639.889,582.089 640.896,576.023 638.624,570.806C636.352,565.589 631.226,562.194 625.535,562.139L556.297,561.471L556.593,527.227C556.615,524.656 555.605,522.185 553.788,520.367C551.971,518.549 549.5,517.536 546.93,517.556L464.632,518.203Z" style="fill:rgb(13,37,43);"/>
                <path d="M464.632,518.203C461.813,518.225 459.125,519.394 457.187,521.441C455.249,523.489 454.228,526.237 454.361,529.053C454.972,542.051 455.918,562.19 455.918,562.19C455.918,562.19 414.17,562.25 384.444,562.293C379.353,562.301 374.748,565.316 372.705,569.979C370.663,574.643 371.569,580.073 375.016,583.819C408.773,620.518 476.136,693.75 499.211,718.836C501.258,721.062 504.146,722.326 507.171,722.32C510.195,722.314 513.078,721.039 515.117,718.805C537.543,694.232 601.964,623.644 636.053,586.292C639.889,582.089 640.896,576.023 638.624,570.806C636.352,565.589 631.226,562.194 625.535,562.139C595.812,561.852 556.297,561.471 556.297,561.471C556.297,561.471 556.481,540.185 556.593,527.227C556.615,524.656 555.605,522.185 553.788,520.367C551.971,518.549 549.5,517.536 546.93,517.556C527.641,517.708 484.731,518.045 464.632,518.203Z" style="fill:white;"/>
            </g>
            <g>
                <g transform="matrix(1,0,0,1,0,0.817694)">
                    <path d="M184.812,695.848C182.577,695.813 180.421,696.677 178.829,698.247C177.237,699.817 176.344,701.961 176.349,704.197C176.416,735.336 176.651,843.049 176.715,872.279C176.724,876.353 180.025,879.653 184.099,879.66C205.634,879.696 268.231,879.802 288.641,879.836C292.254,879.842 295.199,876.941 295.249,873.329C295.35,865.84 295.516,853.703 295.609,846.853C295.627,845.506 295.099,844.209 294.145,843.257C293.191,842.306 291.893,841.781 290.546,841.803C276.854,842.026 239.66,842.63 227.217,842.832C226.132,842.85 225.086,842.431 224.314,841.669C223.542,840.907 223.109,839.866 223.112,838.781C223.176,818.603 223.457,730.088 223.541,703.83C223.554,699.746 220.281,696.41 216.197,696.345C207.7,696.211 193.755,695.99 184.812,695.848Z" style="fill:white;"/>
                </g>
                <g transform="matrix(1.08901,0,0,1.02964,-39.6332,-26.8129)">
                    <path d="M401.913,699.977C449.945,699.977 488.94,741.183 488.94,791.937C488.94,842.691 449.945,883.897 401.913,883.897C353.882,883.897 314.886,842.691 314.886,791.937C314.886,741.183 353.882,699.977 401.913,699.977ZM401.872,738.321C376.173,738.321 355.309,762.249 355.309,791.722C355.309,821.194 376.173,845.122 401.872,845.122C427.571,845.122 448.435,821.194 448.435,791.722C448.435,762.249 427.571,738.321 401.872,738.321Z" style="fill:white;"/>
                </g>
                <g transform="matrix(1.10195,0,0,0.949266,-79.8907,47.5169)">
                    <path d="M777.277,876.259C759.145,876.257 727.559,876.173 714.454,876.136C711.159,876.127 708.491,873.023 708.491,869.198L708.491,692.419C708.491,690.459 709.171,688.58 710.377,687.207C711.583,685.834 713.214,685.082 714.902,685.121C729.148,685.443 763.693,686.194 782.993,686.364C810.792,686.609 851.808,720.245 853.472,780.713C854.983,835.589 810.022,876.261 777.277,876.259ZM779.506,835.14C795.123,832.165 813.234,812.966 814.017,780.725C814.907,744.049 789.947,728.302 778.293,726.954C769.522,725.939 756.361,725.4 751.493,725.226C750.995,725.209 750.512,725.427 750.154,725.83C749.797,726.233 749.595,726.787 749.595,727.366C749.595,741.198 749.595,816.032 749.597,832.77C749.597,834.631 750.873,836.154 752.476,836.206C758.324,836.397 771.691,836.629 779.506,835.14Z" style="fill:white;"/>
                </g>
                <g transform="matrix(1.72258,0,0,1.02452,-414.14,-17.4134)">
                    <path d="M559.777,872.527C559.329,874.546 558.183,875.884 556.902,875.884L536.852,875.884C535.971,875.884 535.145,875.167 534.635,873.96C534.125,872.753 533.994,871.205 534.284,869.807L569.477,700.007C569.781,698.539 570.604,697.555 571.529,697.555L598.177,697.555C599.21,697.555 600.13,698.654 600.47,700.294L635.529,869.451C635.836,870.931 635.697,872.569 635.157,873.847C634.617,875.125 633.743,875.884 632.81,875.884L612.205,875.884C611.057,875.884 610.031,874.685 609.63,872.877L603.771,846.473C603.359,844.616 602.304,843.384 601.125,843.384L568.325,843.384C567.073,843.384 565.953,844.692 565.516,846.664L559.777,872.527ZM584.426,744.291L573.14,806.616L595.713,806.616L584.426,744.291Z" style="fill:white;"/>
                </g>
            </g>
            <g transform="matrix(1,0,0,1,-0.149799,-2.06354)">
                <g transform="matrix(1,0,0,1,0,-0.0362817)">
                    <path d="M118.051,476.029C118.051,476.029 117.066,213.395 116.771,134.705C116.725,122.533 126.537,112.62 138.709,112.54C148.088,112.478 159.017,112.406 168.438,112.344C182.282,112.253 195.102,119.626 201.986,131.637C234.469,188.313 326.79,349.393 326.79,349.393C326.79,349.393 326.819,181.947 326.829,129.077C326.83,120.333 333.885,113.229 342.627,113.166C356.153,113.068 375.411,112.928 388.171,112.836C391.699,112.811 395.092,114.192 397.599,116.674C400.107,119.157 401.521,122.536 401.531,126.064C401.69,186.359 402.345,433.122 402.492,488.657C402.5,491.606 401.333,494.437 399.249,496.525C397.165,498.612 394.336,499.783 391.387,499.781C378.124,499.768 355.807,499.747 340.206,499.732C329.311,499.721 319.231,493.958 313.695,484.574C284.081,434.374 190.987,276.569 190.987,276.569C190.987,276.569 190.876,419.981 190.831,476.838C190.827,482.869 188.41,488.648 184.12,492.887C179.83,497.126 174.023,499.473 167.992,499.406C157.86,499.293 146.078,499.162 136.448,499.054C131.454,498.999 126.689,496.947 123.217,493.356C119.744,489.766 117.853,484.935 117.964,479.942C118.016,477.611 118.051,476.029 118.051,476.029Z" style="fill:rgb(70,207,86);"/>
                </g>
                <g transform="matrix(1,0,0,1,0,-0.228572)">
                    <path d="M680.956,113.943C680.956,113.943 755.166,112.466 795.069,113.431C874.806,115.36 940.112,225.154 852.995,289.852C852.328,290.347 851.965,291.153 852.037,291.981C852.109,292.809 852.605,293.54 853.348,293.913C957.155,346.461 909.801,495.945 802.697,499.269L681.98,498.941C679.28,498.934 677.055,496.82 676.91,494.124L672.736,416.757L673.156,196.313C673.918,177.228 676.507,149.823 680.956,113.943ZM751.713,330.55C750.035,330.501 748.408,331.132 747.202,332.3C745.996,333.468 745.314,335.074 745.31,336.753L745.109,423.426C745.102,426.558 747.625,429.108 750.757,429.133C765.9,429.192 807.02,428.481 819.292,419.339C849.388,396.921 837.309,352.913 814.791,340.318C801.572,332.925 766.253,331.025 751.713,330.55ZM752.532,183.092C750.849,183.034 749.213,183.661 748,184.83C746.787,185.999 746.1,187.61 746.097,189.294L745.939,259.084C745.931,262.224 748.469,264.778 751.609,264.791C764.647,264.797 796.323,264.03 805.971,256.667C830.326,238.079 820.551,201.59 802.328,191.147C791.992,185.225 764.962,183.554 752.532,183.092Z" style="fill:rgb(70,207,86);"/>
                </g>
                <g transform="matrix(1,0,0,1,0,0.0200957)">
                    <path d="M436.192,112.134C432.19,112.131 428.356,113.735 425.547,116.585C422.739,119.436 421.192,123.294 421.254,127.295C421.479,141.794 421.813,163.422 422.026,177.17C422.138,184.393 428.051,190.177 435.275,190.129C463.882,189.938 531.535,189.487 556.29,189.322C558.159,189.309 559.886,190.312 560.802,191.941C561.717,193.57 561.676,195.567 560.694,197.156C535.703,237.609 423.191,419.733 423.191,419.733C423.191,419.733 422.807,466.381 422.626,488.373C422.601,491.342 423.763,494.197 425.852,496.305C427.942,498.413 430.786,499.6 433.755,499.602C469.252,499.625 579.883,499.697 633.102,499.732C640.827,499.737 648.235,496.664 653.688,491.193C659.141,485.722 662.189,478.303 662.158,470.579C662.131,464.009 662.103,457.005 662.077,450.332C662.006,432.74 647.707,418.526 630.115,418.559C594.88,418.625 540.187,418.728 518.377,418.769C516.464,418.773 514.698,417.742 513.761,416.074C512.825,414.406 512.863,412.362 513.861,410.73C540.039,367.95 661.572,169.333 661.572,169.333C661.572,169.333 661.832,141.317 661.987,124.549C662.018,121.305 660.75,118.183 658.467,115.877C656.185,113.572 653.075,112.273 649.831,112.271C609.418,112.245 480.55,112.162 436.192,112.134Z" style="fill:rgb(70,207,86);"/>
                </g>
            </g>
        </g>
    </g>
</svg>
