<?xml version="1.0" encoding="UTF-8" standalone="no"?>
<!DOCTYPE svg PUBLIC "-//W3C//DTD SVG 1.1//EN" "http://www.w3.org/Graphics/SVG/1.1/DTD/svg11.dtd">
<svg width="100%" height="100%" viewBox="0 0 2069 459" version="1.1" xmlns="http://www.w3.org/2000/svg" xmlns:xlink="http://www.w3.org/1999/xlink" xml:space="preserve" xmlns:serif="http://www.serif.com/" style="fill-rule:evenodd;clip-rule:evenodd;stroke-linejoin:round;stroke-miterlimit:2;">
    <g transform="matrix(1,0,0,1,-1233.25,-1181.29)">
        <g transform="matrix(1.51191,0,0,0.704126,-554.734,1063.8)">
            <g transform="matrix(1.5827,0,0,2.08995,1062.73,-1145.68)">
                <path d="M879.382,628.019C912.972,628.019 940.201,672.296 940.201,726.915L940.201,840.736C940.201,895.355 912.972,939.632 879.382,939.632L136.556,939.632C102.966,939.632 75.737,895.355 75.737,840.736L75.737,726.915C75.737,672.296 102.966,628.019 136.556,628.019L879.382,628.019Z" style="fill:rgb(13,37,43);"/>
            </g>
        </g>
        <g transform="matrix(1.51191,0,0,0.704126,-554.734,1063.8)">
            <g transform="matrix(0.985501,0,0,2.11609,1636.36,-1169.75)">
                <g transform="matrix(1,0,0,1,0,0.817694)">
                    <path d="M182.023,695.804C180.522,695.78 179.076,696.36 178.007,697.414C176.939,698.468 176.339,699.907 176.342,701.407C176.403,729.03 176.664,848.814 176.72,874.702C176.726,877.437 178.942,879.651 181.676,879.656C201.148,879.689 272.362,879.808 290.785,879.839C293.21,879.844 295.186,877.897 295.219,875.473C295.324,867.81 295.537,852.116 295.632,845.165C295.644,844.261 295.29,843.39 294.65,842.752C294.009,842.113 293.138,841.761 292.234,841.776C279.769,841.978 237.153,842.671 225.863,842.854C225.135,842.866 224.433,842.585 223.915,842.073C223.396,841.562 223.106,840.863 223.108,840.135C223.164,822.403 223.475,724.621 223.549,701.407C223.557,698.666 221.361,696.427 218.62,696.384C209.791,696.244 191.365,695.952 182.023,695.804Z" style="fill:white;"/>
                </g>
                <g transform="matrix(1.08901,0,0,1.02964,-39.6332,-26.8129)">
                    <path d="M401.913,699.977C449.945,699.977 488.94,741.183 488.94,791.937C488.94,842.691 449.945,883.897 401.913,883.897C353.882,883.897 314.886,842.691 314.886,791.937C314.886,741.183 353.882,699.977 401.913,699.977ZM401.872,738.321C376.173,738.321 355.309,762.249 355.309,791.722C355.309,821.194 376.173,845.122 401.872,845.122C427.571,845.122 448.435,821.194 448.435,791.722C448.435,762.249 427.571,738.321 401.872,738.321Z" style="fill:white;"/>
                </g>
                <g transform="matrix(1.10195,0,0,0.949266,-79.8907,47.5169)">
                    <path d="M777.277,876.259C759.145,876.257 727.559,876.173 714.454,876.136C711.159,876.127 708.491,873.023 708.491,869.198L708.491,692.419C708.491,690.459 709.171,688.58 710.377,687.207C711.583,685.834 713.214,685.082 714.902,685.121C729.148,685.443 763.693,686.194 782.993,686.364C810.792,686.609 851.808,720.245 853.472,780.713C854.983,835.589 810.022,876.261 777.277,876.259ZM779.506,835.14C795.123,832.165 813.234,812.966 814.017,780.725C814.907,744.049 789.947,728.302 778.293,726.954C769.522,725.939 756.361,725.4 751.493,725.226C750.995,725.209 750.512,725.427 750.154,725.83C749.797,726.233 749.595,726.787 749.595,727.366C749.595,741.198 749.595,816.032 749.597,832.77C749.597,834.631 750.873,836.154 752.476,836.206C758.324,836.397 771.691,836.629 779.506,835.14Z" style="fill:white;"/>
                </g>
                <g transform="matrix(1.72258,0,0,1.02452,-414.14,-17.4134)">
                    <path d="M559.777,872.527C559.329,874.546 558.183,875.884 556.902,875.884L536.852,875.884C535.971,875.884 535.145,875.167 534.635,873.96C534.125,872.753 533.994,871.205 534.284,869.807L569.477,700.007C569.781,698.539 570.604,697.555 571.529,697.555L598.177,697.555C599.21,697.555 600.13,698.654 600.47,700.294L635.529,869.451C635.836,870.931 635.697,872.569 635.157,873.847C634.617,875.125 633.743,875.884 632.81,875.884L612.205,875.884C611.057,875.884 610.031,874.685 609.63,872.877L603.771,846.473C603.359,844.616 602.304,843.384 601.125,843.384L568.325,843.384C567.073,843.384 565.953,844.692 565.516,846.664L559.777,872.527ZM584.426,744.291L573.14,806.616L595.713,806.616L584.426,744.291Z" style="fill:white;"/>
                </g>
            </g>
        </g>
        <g transform="matrix(1.51191,0,0,0.704126,-554.734,1063.8)">
            <g transform="matrix(0.661414,0,0,1.4202,1159.91,67.9389)">
                <g>
                    <g transform="matrix(1,0,0,1,0,-0.0362817)">
                        <path d="M118.051,476.029C118.051,476.029 117.066,213.395 116.771,134.705C116.725,122.533 126.537,112.62 138.709,112.54C148.088,112.478 159.017,112.406 168.438,112.344C182.282,112.253 195.102,119.626 201.986,131.637C234.469,188.313 326.79,349.393 326.79,349.393C326.79,349.393 326.819,181.947 326.829,129.077C326.83,120.333 333.885,113.229 342.627,113.166C356.153,113.068 375.411,112.928 388.171,112.836C391.699,112.811 395.092,114.192 397.599,116.674C400.107,119.157 401.521,122.536 401.531,126.064C401.69,186.359 402.345,433.122 402.492,488.657C402.5,491.606 401.333,494.437 399.249,496.525C397.165,498.612 394.336,499.783 391.387,499.781C378.124,499.768 355.807,499.747 340.206,499.732C329.311,499.721 319.231,493.958 313.695,484.574C284.081,434.374 190.987,276.569 190.987,276.569C190.987,276.569 190.876,419.981 190.831,476.838C190.827,482.869 188.41,488.648 184.12,492.887C179.83,497.126 174.023,499.473 167.992,499.406C157.86,499.293 146.078,499.162 136.448,499.054C131.454,498.999 126.689,496.947 123.217,493.356C119.744,489.766 117.853,484.935 117.964,479.942C118.016,477.611 118.051,476.029 118.051,476.029Z" style="fill:rgb(70,207,86);"/>
                    </g>
                    <g transform="matrix(1,0,0,1,0,-0.228572)">
                        <path d="M680.956,113.943C680.956,113.943 755.166,112.466 795.069,113.431C874.806,115.36 940.112,225.154 852.995,289.852C852.328,290.347 851.965,291.153 852.037,291.981C852.109,292.809 852.605,293.54 853.348,293.913C957.155,346.461 909.801,495.945 802.697,499.269L681.98,498.941C679.28,498.934 677.055,496.82 676.91,494.124L672.736,416.757L673.156,196.313C673.918,177.228 676.507,149.823 680.956,113.943ZM751.713,330.55C750.035,330.501 748.408,331.132 747.202,332.3C745.996,333.468 745.314,335.074 745.31,336.753L745.109,423.426C745.102,426.558 747.625,429.108 750.757,429.133C765.9,429.192 807.02,428.481 819.292,419.339C849.388,396.921 837.309,352.913 814.791,340.318C801.572,332.925 766.253,331.025 751.713,330.55ZM752.532,183.092C750.849,183.034 749.213,183.661 748,184.83C746.787,185.999 746.1,187.61 746.097,189.294L745.939,259.084C745.931,262.224 748.469,264.778 751.609,264.791C764.647,264.797 796.323,264.03 805.971,256.667C830.326,238.079 820.551,201.59 802.328,191.147C791.992,185.225 764.962,183.554 752.532,183.092Z" style="fill:rgb(70,207,86);"/>
                    </g>
                    <g transform="matrix(1,0,0,1,0,0.0200957)">
                        <path d="M436.192,112.134C432.19,112.131 428.356,113.735 425.547,116.585C422.739,119.436 421.192,123.294 421.254,127.295C421.479,141.794 421.813,163.422 422.026,177.17C422.138,184.393 428.051,190.177 435.275,190.129C463.882,189.938 531.535,189.487 556.29,189.322C558.159,189.309 559.886,190.312 560.802,191.941C561.717,193.57 561.676,195.567 560.694,197.156C535.703,237.609 423.191,419.733 423.191,419.733C423.191,419.733 422.807,466.381 422.626,488.373C422.601,491.342 423.763,494.197 425.852,496.305C427.942,498.413 430.786,499.6 433.755,499.602C469.252,499.625 579.883,499.697 633.102,499.732C640.827,499.737 648.235,496.664 653.688,491.193C659.141,485.722 662.189,478.303 662.158,470.579C662.131,464.009 662.103,457.005 662.077,450.332C662.006,432.74 647.707,418.526 630.115,418.559C594.88,418.625 540.187,418.728 518.377,418.769C516.464,418.773 514.698,417.742 513.761,416.074C512.825,414.406 512.863,412.362 513.861,410.73C540.039,367.95 661.572,169.333 661.572,169.333C661.572,169.333 661.832,141.317 661.987,124.549C662.018,121.305 660.75,118.183 658.467,115.877C656.185,113.572 653.075,112.273 649.831,112.271C609.418,112.245 480.55,112.162 436.192,112.134Z" style="fill:rgb(70,207,86);"/>
                    </g>
                </g>
            </g>
        </g>
    </g>
</svg>
